Coordinates
version=1
nRows=12
nColumns=19
inDegrees=yes

Units are S.I. units (second, meters, Newtons, ...)
If the header above contains a line with 'inDegrees', this indicates whether rotational values are in degrees (yes) or radians (no).

endheader
time	pelvis_obliquity	pelvis_rotation	pelvis_tilt	pelvis_to_ground_tx	pelvis_to_ground_ty	pelvis_to_ground_tz	left_hip_abduction	left_hip_rotation	left_hip_flexion	left_knee_flexion	left_ankle_flexion	left_subtalar_angle	right_hip_abduction	right_hip_rotation	right_hip_flexion	right_knee_flexion	right_ankle_flexion	right_subtalar_angle
      3.79000000	     97.81689629	     23.05132590	    -17.95087863	      1.20502227	     -0.68925475	      0.59456334	     -4.55085834	    -26.68894014	     19.98266888	     -0.60971208	    -15.18659431	    -10.36931633	     -4.43000232	     -5.79780823	     32.49125995	    -52.02275574	    -10.89484707	    -12.41156102
      3.80000000	     97.63262202	     24.32735419	    -17.77268651	      1.21486656	     -0.68788272	      0.59610166	     -4.35890556	    -26.86110969	     18.33475777	      0.51821939	    -15.38925225	    -10.13657920	     -4.43745341	     -6.99931422	     34.67405341	    -53.22108682	    -10.19022448	    -12.67402289
      3.81000000	     97.46153163	     25.57571971	    -17.52752377	      1.22463012	     -0.68666011	      0.59726742	     -4.15538382	    -27.02313510	     16.75946991	      1.43600518	    -15.68473502	     -9.87094714	     -4.49489855	     -8.14829800	     36.80043709	    -54.16514422	     -9.31629900	    -12.99014708
      3.82000000	     97.32982961	     26.76485348	    -17.23859438	      1.23434891	     -0.68557331	      0.59805188	     -3.95783407	    -27.19907478	     15.23009379	      2.21117022	    -15.96275299	     -9.59617552	     -4.63894584	     -9.19226176	     38.86922924	    -54.86329453	     -8.47942512	    -13.28180573
      3.83000000	     97.26649987	     27.87407083	    -16.91958740	      1.24405687	     -0.68461500	      0.59844530	     -3.79677373	    -27.40934416	     13.70447832	      2.90693318	    -16.18375528	     -9.30755940	     -4.90783558	    -10.10042293	     40.86515471	    -55.32557780	     -7.75825869	    -13.55703945
      3.84000000	     97.28723357	     28.89200486	    -16.58567254	      1.25380394	     -0.68377417	      0.59844863	     -3.69479772	    -27.65446332	     12.15853627	      3.55609134	    -16.34909646	     -9.00425719	     -5.32246370	    -10.84887369	     42.76750319	    -55.54773557	     -7.16584551	    -13.82721294
      3.85000000	     97.40657035	     29.81171715	    -16.24598154	      1.26362648	     -0.68303012	      0.59806639	     -3.67890041	    -27.93806684	     10.56882479	      4.17519472	    -16.46552125	     -8.68934110	     -5.90631966	    -11.41967915	     44.54430102	    -55.51979107	     -6.70274294	    -14.09025137
      3.86000000	     97.67333487	     30.53560211	    -16.00633207	      1.27353779	     -0.68233964	      0.59728868	     -3.80847256	    -28.02436099	      9.05801229	      4.69040564	    -16.47749461	     -8.47808636	     -6.73046128	    -11.67947530	     46.26806593	    -55.24464024	     -6.50832943	    -14.24929041
      3.87000000	     97.90844450	     31.29659962	    -15.57102493	      1.28376124	     -0.68174990	      0.59623067	     -3.93847553	    -28.49303137	      7.20227548	      5.37042957	    -16.56696745	     -8.08771791	     -7.59556299	    -11.82366567	     47.56696679	    -54.60556905	     -6.19531016	    -14.52395328
      3.88000000	     98.25502068	     31.85659579	    -15.23055231	      1.29419804	     -0.68116790	      0.59482917	     -4.20666839	    -28.70967315	      5.42595747	      5.91841669	    -16.63780013	     -7.80420273	     -8.68571284	    -11.57996928	     48.71803777	    -53.67005870	     -6.05764625	    -14.69473833
      3.89000000	     98.63888564	     32.31769233	    -14.87718364	      1.30496448	     -0.68059806	      0.59314329	     -4.55393424	    -28.91039399	      3.59863854	      6.38307726	    -16.68312094	     -7.55536878	     -9.91362235	    -11.02146835	     49.55991666	    -52.40705638	     -6.05134767	    -14.80154393
      3.90000000	     99.04457927	     32.67909007	    -14.51807072	      1.31611955	     -0.68000326	      0.59119644	     -4.96844497	    -29.04908387	      1.74775871	      6.74274609	    -16.72839458	     -7.34660001	    -11.25196895	    -10.15472763	     50.07896320	    -50.84933545	     -6.14158918	    -14.86403388
